<mxfile host="app.diagrams.net" agent="Mozilla/5.0 (Windows NT 10.0; Win64; x64) AppleWebKit/537.36 (KHTML, like Gecko) Chrome/136.0.0.0 Safari/537.36" version="27.0.9">
  <diagram name="Page-1" id="c4acf3e9-155e-7222-9cf6-157b1a14988f">
    <mxGraphModel dx="864" dy="471" grid="0" gridSize="10" guides="1" tooltips="1" connect="1" arrows="1" fold="1" page="1" pageScale="1" pageWidth="850" pageHeight="1100" background="none" math="0" shadow="0">
      <root>
        <mxCell id="0" />
        <mxCell id="1" parent="0" />
        <mxCell id="jcVrYt3qy7a7vMlt7beS-18" style="edgeStyle=orthogonalEdgeStyle;rounded=0;orthogonalLoop=1;jettySize=auto;html=1;exitX=0.5;exitY=1;exitDx=0;exitDy=0;" edge="1" parent="1" source="jcVrYt3qy7a7vMlt7beS-3" target="jcVrYt3qy7a7vMlt7beS-17">
          <mxGeometry relative="1" as="geometry" />
        </mxCell>
        <mxCell id="jcVrYt3qy7a7vMlt7beS-3" value="fetchUser" style="rounded=0;whiteSpace=wrap;html=1;" vertex="1" parent="1">
          <mxGeometry x="260" y="140" width="80" height="20" as="geometry" />
        </mxCell>
        <mxCell id="jcVrYt3qy7a7vMlt7beS-9" style="edgeStyle=orthogonalEdgeStyle;rounded=0;orthogonalLoop=1;jettySize=auto;html=1;exitX=0.5;exitY=1;exitDx=0;exitDy=0;" edge="1" parent="1" source="jcVrYt3qy7a7vMlt7beS-5" target="jcVrYt3qy7a7vMlt7beS-7">
          <mxGeometry relative="1" as="geometry" />
        </mxCell>
        <mxCell id="jcVrYt3qy7a7vMlt7beS-5" value="$isLoading" style="rounded=0;whiteSpace=wrap;html=1;" vertex="1" parent="1">
          <mxGeometry x="200" y="40" width="80" height="20" as="geometry" />
        </mxCell>
        <mxCell id="jcVrYt3qy7a7vMlt7beS-12" style="edgeStyle=orthogonalEdgeStyle;rounded=0;orthogonalLoop=1;jettySize=auto;html=1;exitX=0.5;exitY=1;exitDx=0;exitDy=0;" edge="1" parent="1" source="jcVrYt3qy7a7vMlt7beS-6" target="jcVrYt3qy7a7vMlt7beS-11">
          <mxGeometry relative="1" as="geometry" />
        </mxCell>
        <mxCell id="jcVrYt3qy7a7vMlt7beS-6" value="checkAuth" style="rounded=0;whiteSpace=wrap;html=1;" vertex="1" parent="1">
          <mxGeometry x="140" y="140" width="80" height="20" as="geometry" />
        </mxCell>
        <mxCell id="jcVrYt3qy7a7vMlt7beS-8" style="edgeStyle=orthogonalEdgeStyle;rounded=0;orthogonalLoop=1;jettySize=auto;html=1;exitX=0;exitY=0.5;exitDx=0;exitDy=0;" edge="1" parent="1" source="jcVrYt3qy7a7vMlt7beS-7" target="jcVrYt3qy7a7vMlt7beS-6">
          <mxGeometry relative="1" as="geometry">
            <Array as="points">
              <mxPoint x="180" y="100" />
            </Array>
          </mxGeometry>
        </mxCell>
        <mxCell id="jcVrYt3qy7a7vMlt7beS-10" style="edgeStyle=orthogonalEdgeStyle;rounded=0;orthogonalLoop=1;jettySize=auto;html=1;exitX=1;exitY=0.5;exitDx=0;exitDy=0;" edge="1" parent="1" source="jcVrYt3qy7a7vMlt7beS-7" target="jcVrYt3qy7a7vMlt7beS-3">
          <mxGeometry relative="1" as="geometry">
            <Array as="points">
              <mxPoint x="300" y="100" />
            </Array>
          </mxGeometry>
        </mxCell>
        <mxCell id="jcVrYt3qy7a7vMlt7beS-7" value="$isAuth" style="rhombus;whiteSpace=wrap;html=1;" vertex="1" parent="1">
          <mxGeometry x="200" y="80" width="80" height="40" as="geometry" />
        </mxCell>
        <mxCell id="jcVrYt3qy7a7vMlt7beS-13" style="edgeStyle=orthogonalEdgeStyle;rounded=0;orthogonalLoop=1;jettySize=auto;html=1;exitX=1;exitY=0.5;exitDx=0;exitDy=0;" edge="1" parent="1" source="jcVrYt3qy7a7vMlt7beS-11" target="jcVrYt3qy7a7vMlt7beS-14">
          <mxGeometry relative="1" as="geometry">
            <mxPoint x="240" y="230" as="targetPoint" />
          </mxGeometry>
        </mxCell>
        <mxCell id="jcVrYt3qy7a7vMlt7beS-15" style="edgeStyle=orthogonalEdgeStyle;rounded=0;orthogonalLoop=1;jettySize=auto;html=1;exitX=0;exitY=0.5;exitDx=0;exitDy=0;" edge="1" parent="1" source="jcVrYt3qy7a7vMlt7beS-11">
          <mxGeometry relative="1" as="geometry">
            <mxPoint x="120" y="240" as="targetPoint" />
          </mxGeometry>
        </mxCell>
        <mxCell id="jcVrYt3qy7a7vMlt7beS-11" value="$isAuth" style="rhombus;whiteSpace=wrap;html=1;" vertex="1" parent="1">
          <mxGeometry x="140" y="180" width="80" height="40" as="geometry" />
        </mxCell>
        <mxCell id="jcVrYt3qy7a7vMlt7beS-14" value="login" style="ellipse;whiteSpace=wrap;html=1;" vertex="1" parent="1">
          <mxGeometry x="220" y="240" width="40" height="40" as="geometry" />
        </mxCell>
        <mxCell id="jcVrYt3qy7a7vMlt7beS-19" style="edgeStyle=orthogonalEdgeStyle;rounded=0;orthogonalLoop=1;jettySize=auto;html=1;" edge="1" parent="1" source="jcVrYt3qy7a7vMlt7beS-16" target="jcVrYt3qy7a7vMlt7beS-17">
          <mxGeometry relative="1" as="geometry">
            <mxPoint x="120" y="260" as="sourcePoint" />
            <Array as="points">
              <mxPoint x="120" y="300" />
              <mxPoint x="300" y="300" />
            </Array>
          </mxGeometry>
        </mxCell>
        <mxCell id="jcVrYt3qy7a7vMlt7beS-16" value="fetchUser" style="rounded=0;whiteSpace=wrap;html=1;" vertex="1" parent="1">
          <mxGeometry x="80" y="220" width="80" height="20" as="geometry" />
        </mxCell>
        <mxCell id="jcVrYt3qy7a7vMlt7beS-21" style="edgeStyle=orthogonalEdgeStyle;rounded=0;orthogonalLoop=1;jettySize=auto;html=1;exitX=1;exitY=0.5;exitDx=0;exitDy=0;" edge="1" parent="1" source="jcVrYt3qy7a7vMlt7beS-17" target="jcVrYt3qy7a7vMlt7beS-20">
          <mxGeometry relative="1" as="geometry" />
        </mxCell>
        <mxCell id="jcVrYt3qy7a7vMlt7beS-23" style="edgeStyle=orthogonalEdgeStyle;rounded=0;orthogonalLoop=1;jettySize=auto;html=1;exitX=0;exitY=0.5;exitDx=0;exitDy=0;entryX=0.5;entryY=0;entryDx=0;entryDy=0;" edge="1" parent="1" source="jcVrYt3qy7a7vMlt7beS-17" target="jcVrYt3qy7a7vMlt7beS-22">
          <mxGeometry relative="1" as="geometry" />
        </mxCell>
        <mxCell id="jcVrYt3qy7a7vMlt7beS-17" value="$user" style="rhombus;whiteSpace=wrap;html=1;" vertex="1" parent="1">
          <mxGeometry x="260" y="320" width="80" height="40" as="geometry" />
        </mxCell>
        <mxCell id="jcVrYt3qy7a7vMlt7beS-26" style="edgeStyle=orthogonalEdgeStyle;rounded=0;orthogonalLoop=1;jettySize=auto;html=1;exitX=0.5;exitY=1;exitDx=0;exitDy=0;" edge="1" parent="1" source="jcVrYt3qy7a7vMlt7beS-20" target="jcVrYt3qy7a7vMlt7beS-24">
          <mxGeometry relative="1" as="geometry" />
        </mxCell>
        <mxCell id="jcVrYt3qy7a7vMlt7beS-20" value="!$isLoading" style="rounded=0;whiteSpace=wrap;html=1;" vertex="1" parent="1">
          <mxGeometry x="320" y="380" width="80" height="20" as="geometry" />
        </mxCell>
        <mxCell id="jcVrYt3qy7a7vMlt7beS-27" style="edgeStyle=orthogonalEdgeStyle;rounded=0;orthogonalLoop=1;jettySize=auto;html=1;exitX=0.5;exitY=1;exitDx=0;exitDy=0;" edge="1" parent="1" source="jcVrYt3qy7a7vMlt7beS-22" target="jcVrYt3qy7a7vMlt7beS-25">
          <mxGeometry relative="1" as="geometry" />
        </mxCell>
        <mxCell id="jcVrYt3qy7a7vMlt7beS-22" value="!$isLoading" style="rounded=0;whiteSpace=wrap;html=1;" vertex="1" parent="1">
          <mxGeometry x="200" y="380" width="80" height="20" as="geometry" />
        </mxCell>
        <mxCell id="jcVrYt3qy7a7vMlt7beS-24" value="&amp;lt;ProfilePage/&amp;gt;" style="rounded=0;whiteSpace=wrap;html=1;" vertex="1" parent="1">
          <mxGeometry x="320" y="420" width="80" height="20" as="geometry" />
        </mxCell>
        <mxCell id="jcVrYt3qy7a7vMlt7beS-25" value="&amp;lt;ErrorPage/&amp;gt;" style="rounded=0;whiteSpace=wrap;html=1;" vertex="1" parent="1">
          <mxGeometry x="200" y="420" width="80" height="20" as="geometry" />
        </mxCell>
      </root>
    </mxGraphModel>
  </diagram>
</mxfile>
